<?xml version="1.0" encoding="utf-8"?>
<!-- Generator: Adobe Illustrator 17.1.0, SVG Export Plug-In . SVG Version: 6.00 Build 0)  -->
<!DOCTYPE svg PUBLIC "-//W3C//DTD SVG 1.1//EN" "http://www.w3.org/Graphics/SVG/1.1/DTD/svg11.dtd">
<svg version="1.1" id="Layer_1" xmlns="http://www.w3.org/2000/svg" xmlns:xlink="http://www.w3.org/1999/xlink" x="0px" y="0px"
	 viewBox="0 0 400 400" enable-background="new 0 0 400 400" xml:space="preserve">
<path fill="#F1F2F2" d="M334,382.8H157.5C74,382.8,6.3,315.1,6.3,231.6V55.1c0-27.8,22.6-50.4,50.4-50.4h176.5
	c83.5,0,151.3,67.7,151.3,151.3v176.5C384.4,360.3,361.8,382.8,334,382.8z"/>
<g id="XMLID_5_">
	<g>
		<path fill="#231F20" d="M279.7,208.9c4.6,2.2,9.9,2.6,14.9,1.2l9.9-2.9c-9.5,3.7-16.8,11.9-19.2,22.1l-49.5-26.5
			c-6.6-3.5-14-5.4-21.4-5.4l-3.6,0l13.9-14.1L279.7,208.9z"/>
		<path fill="#231F20" d="M339.8,236.6c0-13.6-10.8-24.5-24.2-24.5c-13.4,0-24.2,11-24.2,24.5c0,13.5,10.9,24.5,24.2,24.5
			C328.9,261.1,339.8,250.1,339.8,236.6z M315.6,205c17.2,0,31.2,14.1,31.2,31.6c0,17.4-13.9,31.5-31.2,31.6
			c-17.2,0-31.2-14.2-31.2-31.6c0-2.6,0.3-5,0.9-7.4c2.4-10.2,9.7-18.4,19.2-22.1C308,205.7,311.7,205,315.6,205z"/>
		<path fill="#231F20" d="M269.1,56.9l31.4,31.8c4.8,4.9,2.4,15.4-5.5,23.4l-70.2,71.1l-12.7-6l0.6-0.6l-30.9-31.3
			c-1.3-1.4-0.6-4.4,1.7-6.7s5.3-3.1,6.6-1.7l31.2,31.6l7.5-7.6l-31.2-31.6c-1.3-1.4-0.6-4.4,1.7-6.7c2.3-2.3,5.3-3.1,6.6-1.7
			l31.2,31.6l7.5-7.6l-31.2-31.6c-1.3-1.4-0.6-4.4,1.7-6.7c2.3-2.3,5.3-3.1,6.6-1.7l31.2,31.6l7.5-7.6l-31.2-31.6
			c-1.3-1.4-0.6-4.4,1.7-6.7c2.3-2.3,5.3-3.1,6.6-1.7l31.2,31.6l7.5-7.6L245,81.3c-1.3-1.4-0.6-4.4,1.7-6.7c2.3-2.3,5.3-3.1,6.6-1.7
			l31.2,31.6l7.5-7.6l-31.2-31.6c-1.3-1.4-0.6-4.4,1.7-6.7C264.7,56.3,267.7,55.6,269.1,56.9z"/>
		<polygon fill="#231F20" points="193.8,168.8 212,177.2 205.1,184.3 186.3,165.3 		"/>
		<path fill="#231F20" d="M167.3,154.4c2.3-2.3,5.3-3.1,6.7-1.7l12.4,12.5l-20.2-9.4L167.3,154.4z"/>
		<path fill="#231F20" d="M202,197.3l8.8,0l-10.9,11c-0.1-1.2-0.1-2.4-0.1-3.7l0-7.4L202,197.3z"/>
		<path fill="#231F20" d="M187.7,176.1c1.8,0,3.5,0.7,4.7,1.9l-5.1,5.2l-4.8-4.8C183.8,176.9,185.7,176,187.7,176.1z"/>
		<path fill="#231F20" d="M173.9,152.7c-1.4-1.4-4.4-0.6-6.7,1.7l-1.1,1.4l-6.4-3l-59-118.5c-0.4-0.8-0.7-1.8-0.7-2.8l0,0
			c0-2.2,2.2-3.8,4.2-2.9l0,0c2.5,1,4.6,2.7,6,5l83.6,135.2l-7.5-3.5L173.9,152.7z"/>
		<path fill="#231F20" d="M194.8,183.3c0-2.2-0.9-4.1-2.4-5.4c-1.2-1.2-2.9-1.9-4.7-1.9c-2,0-3.9,0.8-5.2,2.2l-16.9-17.1
			c-0.8-0.9-0.9-2.3,0.5-5.3l20.2,9.4l18.8,19l6.9-7l12.7,6l-13.9,14.1l-8.8,0l-2.2,0l-6.7,0c-0.3,0-0.6,0-0.9,0l4.5-4.6l-4.1-4.2
			C194,187.2,194.9,185.3,194.8,183.3z"/>
		<path fill="#231F20" d="M187.3,183.1l5.1-5.2c1.5,1.3,2.4,3.2,2.4,5.4c0,2-0.8,3.9-2.2,5.2L187.3,183.1z"/>
		<path fill="#231F20" d="M182.5,178.3l4.8,4.8l-4.9,5c-1.1-1.2-1.8-2.9-1.8-4.8C180.6,181.3,181.3,179.5,182.5,178.3z"/>
		<path fill="#231F20" d="M187.3,183.1l5.3,5.4c-1.2,1.2-3,2-4.9,2c-2.1,0-4-0.9-5.3-2.4L187.3,183.1z"/>
		<path fill="#231F20" d="M189.3,200.3l-5.6-5.7c2.6,1.6,5.5,2.5,8.6,2.6L189.3,200.3z"/>
		<path fill="#231F20" d="M158.1,168.7l25.6,25.9c-1.1-0.7-2.2-1.4-3.1-2.3l0,0c-0.4-0.4-0.9-0.7-1.3-1l-0.5-0.3l-29.3-17.5
			c0.3-1,1-2.1,2-3.1C153.8,168.1,156.7,167.4,158.1,168.7z"/>
		<path fill="#231F20" d="M193.1,197.3l6.7,0l0,7.4c0,1.2,0,2.5,0.1,3.7l-13.3,13.5c-1-2.4-1.9-4.8-2.5-7.4l-1.6-6.8l-3.9-16.6
			l0.5,0.3c0.4,0.3,0.9,0.6,1.3,1l0,0c1,0.9,2,1.7,3.1,2.3l0,0l5.6,5.7l3-3C192.5,197.3,192.8,197.3,193.1,197.3z"/>
		<path fill="#231F20" d="M149.5,173.5l29.3,17.5l3.9,16.6l-1.6,1l-31.2-31.6C149.6,176.9,149.4,176.6,149.5,173.5z"/>
		<path fill="#231F20" d="M199.9,208.3c0.6,9.5,3.2,18.8,7.9,27.2l25.4,45.9c-4.9,1.3-9.2,3.7-12.8,6.9l-32.8-64.5
			c-0.3-0.7-0.7-1.4-1-2.1L199.9,208.3z"/>
		<path fill="#231F20" d="M34.3,96c1.6-0.4,3.2-0.2,4.6,0.5l120.7,56.3l6.4,3c-1.4,3-1.4,4.4-0.5,5.3l16.9,17.1c-1.2,1.3-2,3.1-2,5
			c0,1.9,0.7,3.6,1.8,4.8c1.3,1.5,3.2,2.4,5.3,2.4c1.9,0,3.7-0.8,4.9-2l4.1,4.2l-4.5,4.6c-3-0.1-6-1-8.6-2.6l0,0l-25.6-25.9
			c-1.4-1.4-4.3-0.7-6.6,1.7c-1,1-1.7,2-2,3.1L35.6,105.6c-2-1.1-3.3-3-3.9-5.2l0-0.1C31.3,98.4,32.4,96.5,34.3,96L34.3,96z"/>
		<path fill="#231F20" d="M157.6,232.3l7.5-7.6L134,193.2c-1.4-1.4-0.6-4.4,1.7-6.7c2.3-2.3,5.3-3.1,6.7-1.7l31.2,31.6l7.5-7.6
			l1.6-1l1.6,6.8c0.6,2.5,1.4,5,2.5,7.4l-76.9,77.9c-7.9,8-18.2,10.5-23,5.6l-31.5-31.9c-1.3-1.4-0.6-4.4,1.7-6.7
			c2.3-2.3,5.3-3.1,6.6-1.7l31.2,31.6l7.5-7.6L71,257.5c-1.3-1.4-0.6-4.4,1.7-6.7c2.3-2.3,5.3-3.1,6.6-1.7l31.2,31.6l7.5-7.6
			l-31.2-31.6c-1.3-1.4-0.6-4.4,1.7-6.7c2.3-2.3,5.3-3.1,6.6-1.7l31.2,31.6l7.5-7.6l-31.2-31.6c-1.3-1.4-0.6-4.4,1.7-6.7
			c2.3-2.3,5.3-3.1,6.6-1.7l31.2,31.6l7.5-7.6l-0.3-0.3l-30.9-31.3l-0.3-0.3c-1.4-1.4-0.6-4.4,1.7-6.7s5.3-3.1,6.6-1.7L157.6,232.3z
			"/>
		<path fill="#231F20" d="M220.3,288.4c3.6-3.3,8-5.7,12.8-6.9c2.5-0.7,5.1-1,7.9-1c17.2,0,31.2,14.2,31.2,31.6
			c0,17.4-14,31.6-31.2,31.6c-17.2,0-31.2-14.1-31.2-31.6C209.9,302.5,213.9,294.1,220.3,288.4z M241,336.4
			c13.4,0,24.2-11,24.2-24.5c0-13.5-10.9-24.5-24.2-24.5c-13.4,0-24.2,11-24.2,24.5C216.8,325.5,227.6,336.4,241,336.4z"/>
	</g>
	<g>
		<path fill="none" stroke="#020202" stroke-width="0.2" stroke-miterlimit="10" d="M186.6,221.8l-76.9,77.9
			c-7.9,8-18.2,10.5-23,5.6"/>
		<line fill="none" stroke="#020202" stroke-width="0.2" stroke-miterlimit="10" x1="210.8" y1="197.3" x2="199.9" y2="208.3"/>
		<path fill="none" stroke="#020202" stroke-width="0.2" stroke-miterlimit="10" d="M300.5,88.7c4.8,4.9,2.4,15.4-5.5,23.4
			l-70.2,71.1"/>
		<path fill="none" stroke="#020202" stroke-width="0.2" stroke-miterlimit="10" d="M300.5,88.7l-31.4-31.8
			c-1.3-1.4-4.3-0.6-6.6,1.7c-2.3,2.3-3,5.3-1.7,6.7l31.2,31.6l-7.5,7.6L253.2,73c-1.3-1.4-4.3-0.6-6.6,1.7c-2.3,2.3-3,5.3-1.7,6.7"
			/>
		<path fill="none" stroke="#020202" stroke-width="0.2" stroke-miterlimit="10" d="M245,81.3l31.2,31.6l-7.5,7.6L237.4,89
			c-1.3-1.4-4.3-0.6-6.6,1.7c-2.3,2.3-3,5.3-1.7,6.7"/>
		<path fill="none" stroke="#020202" stroke-width="0.2" stroke-miterlimit="10" d="M229.1,97.4l31.2,31.6l-7.5,7.6L221.6,105
			c-1.3-1.4-4.3-0.6-6.6,1.7c-2.3,2.3-3,5.3-1.7,6.7"/>
		<path fill="none" stroke="#020202" stroke-width="0.2" stroke-miterlimit="10" d="M213.3,113.4l31.2,31.6l-7.5,7.6L205.8,121
			c-1.3-1.4-4.3-0.6-6.6,1.7c-2.3,2.3-3,5.3-1.7,6.7"/>
		<line fill="none" stroke="#020202" stroke-width="0.2" stroke-miterlimit="10" x1="212.6" y1="176.7" x2="212.9" y2="177"/>
		<path fill="none" stroke="#020202" stroke-width="0.2" stroke-miterlimit="10" d="M197.5,129.4l31.2,31.6l-7.5,7.6L190,137
			c-1.3-1.4-4.3-0.6-6.6,1.7s-3,5.3-1.7,6.7"/>
		<polyline fill="none" stroke="#020202" stroke-width="0.2" stroke-miterlimit="10" points="181.4,145.1 181.7,145.4 212.6,176.7 
			212,177.2 		"/>
		<path fill="none" stroke="#020202" stroke-width="0.2" stroke-miterlimit="10" d="M149.5,173.5c-0.1,3.1,0.1,3.4,0.4,3.6"/>
		<path fill="none" stroke="#020202" stroke-width="0.2" stroke-miterlimit="10" d="M149.8,177.1l31.2,31.6l-7.5,7.6l-31.2-31.6
			c-1.4-1.4-4.4-0.6-6.7,1.7c-2.3,2.3-3,5.3-1.7,6.7"/>
		<path fill="none" stroke="#020202" stroke-width="0.2" stroke-miterlimit="10" d="M134,193.2l31.2,31.6l-7.5,7.6l-31.2-31.6
			c-1.4-1.4-4.3-0.7-6.6,1.7s-3,5.3-1.7,6.7l0.3,0.3"/>
		<path fill="none" stroke="#020202" stroke-width="0.2" stroke-miterlimit="10" d="M118.4,209.4l30.9,31.3l0.3,0.3l-7.5,7.6
			L110.9,217c-1.3-1.4-4.3-0.6-6.6,1.7c-2.3,2.3-3,5.3-1.7,6.7"/>
		<path fill="none" stroke="#020202" stroke-width="0.2" stroke-miterlimit="10" d="M102.6,225.5l31.2,31.6l-7.5,7.6l-31.2-31.6
			c-1.3-1.4-4.3-0.6-6.6,1.7c-2.3,2.3-3,5.3-1.7,6.7"/>
		<path fill="none" stroke="#020202" stroke-width="0.2" stroke-miterlimit="10" d="M86.8,241.5L118,273l-7.5,7.6l-31.2-31.6
			c-1.3-1.4-4.3-0.6-6.6,1.7c-2.3,2.3-3,5.3-1.7,6.7"/>
		<path fill="none" stroke="#020202" stroke-width="0.2" stroke-miterlimit="10" d="M71,257.5l31.2,31.6l-7.5,7.6l-31.2-31.6
			c-1.3-1.4-4.3-0.6-6.6,1.7c-2.3,2.3-3,5.3-1.7,6.7l31.5,31.9"/>
		<path fill="none" stroke="#020202" stroke-width="0.2" stroke-miterlimit="10" d="M285.3,229.2l-49.5-26.5
			c-6.6-3.5-14-5.4-21.4-5.4l-3.6,0l-8.8,0l-2.2,0l-6.7,0c-0.3,0-0.6,0-0.9,0c-3-0.1-6-1-8.6-2.6l0,0c-1.1-0.7-2.2-1.4-3.1-2.3l0,0
			c-0.4-0.4-0.9-0.7-1.3-1l-0.5-0.3l-29.3-17.5L35.6,105.6c-2-1.1-3.3-3-3.9-5.2l0-0.1c-0.5-1.9,0.6-3.8,2.5-4.3l0.1,0
			c1.6-0.4,3.2-0.2,4.6,0.5l120.7,56.3l6.4,3l20.2,9.4l7.5,3.5l18.2,8.5l12.7,6l55,25.6c4.6,2.2,9.9,2.6,14.9,1.2l9.9-2.9"/>
		<path fill="none" stroke="#020202" stroke-width="0.2" stroke-miterlimit="10" d="M159.7,152.8l-59-118.5
			c-0.4-0.8-0.7-1.8-0.7-2.8l0,0c0-2.2,2.2-3.8,4.2-2.9l0,0c2.5,1,4.6,2.7,6,5l83.6,135.2"/>
		<path fill="none" stroke="#020202" stroke-width="0.2" stroke-miterlimit="10" d="M199.8,197.3l0,7.4c0,1.2,0,2.5,0.1,3.7
			c0.6,9.5,3.2,18.8,7.9,27.2l25.4,45.9"/>
		<path fill="none" stroke="#020202" stroke-width="0.2" stroke-miterlimit="10" d="M178.7,191l3.9,16.6l1.6,6.8
			c0.6,2.5,1.4,5,2.5,7.4c0.3,0.7,0.6,1.4,1,2.1l32.8,64.5"/>
		<path fill="none" stroke="#020202" stroke-width="0.2" stroke-miterlimit="10" d="M182.5,178.3c1.3-1.4,3.1-2.3,5.2-2.2
			c1.8,0,3.5,0.7,4.7,1.9c1.5,1.3,2.4,3.2,2.4,5.4c0,2-0.8,3.9-2.2,5.2c-1.2,1.2-3,2-4.9,2c-2.1,0-4-0.9-5.3-2.4
			c-1.1-1.2-1.8-2.9-1.8-4.8C180.6,181.3,181.3,179.5,182.5,178.3z"/>
		<polyline fill="none" stroke="#020202" stroke-width="0.2" stroke-miterlimit="10" points="182.4,188.1 187.3,183.1 192.4,177.9 
			192.5,177.9 		"/>
		<path fill="none" stroke="#020202" stroke-width="0.2" stroke-miterlimit="10" d="M233.2,281.4c2.5-0.7,5.1-1,7.9-1
			c17.2,0,31.2,14.2,31.2,31.6c0,17.4-14,31.6-31.2,31.6c-17.2,0-31.2-14.1-31.2-31.6c0-9.4,4-17.8,10.5-23.6
			C223.9,285.1,228.3,282.7,233.2,281.4z"/>
		<path fill="none" stroke="#020202" stroke-width="0.2" stroke-miterlimit="10" d="M304.5,207.1c3.4-1.3,7.2-2,11.1-2
			c17.2,0,31.2,14.1,31.2,31.6c0,17.4-13.9,31.5-31.2,31.6c-17.2,0-31.2-14.2-31.2-31.6c0-2.6,0.3-5,0.9-7.4
			C287.7,219,295,210.7,304.5,207.1z"/>
		<path fill="none" stroke="#020202" stroke-width="0.2" stroke-miterlimit="10" d="M241,287.4c13.4,0,24.2,11,24.2,24.5
			c0,13.5-10.9,24.5-24.2,24.5c-13.4,0-24.2-10.9-24.2-24.4C216.8,298.4,227.6,287.5,241,287.4z"/>
		<path fill="none" stroke="#020202" stroke-width="0.2" stroke-miterlimit="10" d="M315.6,212c13.4,0,24.2,11,24.2,24.5
			c0,13.5-10.8,24.5-24.2,24.5c-13.4,0-24.2-11-24.2-24.5C291.4,223,302.2,212.1,315.6,212z"/>
	</g>
</g>
</svg>
